<?xml version="1.0" encoding="UTF-8" standalone="no"?>
<!-- Created with Inkscape (http://www.inkscape.org/) -->

<svg
   xmlns:dc="http://purl.org/dc/elements/1.1/"
   xmlns:cc="http://creativecommons.org/ns#"
   xmlns:rdf="http://www.w3.org/1999/02/22-rdf-syntax-ns#"
   xmlns:svg="http://www.w3.org/2000/svg"
   xmlns="http://www.w3.org/2000/svg"
   xmlns:sodipodi="http://sodipodi.sourceforge.net/DTD/sodipodi-0.dtd"
   xmlns:inkscape="http://www.inkscape.org/namespaces/inkscape"
   width="744.09448819"
   height="1052.3622047"
   id="svg3012"
   version="1.1"
   inkscape:version="0.48.0 r9654"
   sodipodi:docname="fill_rule_both_2.svg">
  <defs
     id="defs3014" />
  <sodipodi:namedview
     id="base"
     pagecolor="#ffffff"
     bordercolor="#666666"
     borderopacity="1.0"
     inkscape:pageopacity="0.0"
     inkscape:pageshadow="2"
     inkscape:zoom="1"
     inkscape:cx="85.567215"
     inkscape:cy="63.743333"
     inkscape:document-units="px"
     inkscape:current-layer="layer1"
     showgrid="false"
     inkscape:window-width="885"
     inkscape:window-height="788"
     inkscape:window-x="315"
     inkscape:window-y="87"
     inkscape:window-maximized="0" />
  <metadata
     id="metadata3017">
    <rdf:RDF>
      <cc:Work
         rdf:about="">
        <dc:format>image/svg+xml</dc:format>
        <dc:type
           rdf:resource="http://purl.org/dc/dcmitype/StillImage" />
        <dc:title></dc:title>
      </cc:Work>
    </rdf:RDF>
  </metadata>
  <g
     inkscape:label="Layer 1"
     inkscape:groupmode="layer"
     id="layer1">
    <path
       id="path4636"
       transform="matrix(0.90401444,0,0,0.90400244,-95.164018,121.95822)"
       style="fill:#dc0000;stroke:none;stroke-width:1.65927660000000010;stroke-miterlimit:4;stroke-opacity:1;fill-opacity:1;fill-rule:evenodd"
       d="m 237,948.86218 c 0,20.1584 -16.34161,36.5 -36.5,36.5 -20.15839,0 -36.5,-16.3416 -36.5,-36.5 0,-20.15839 16.34161,-36.5 36.5,-36.5 20.15839,0 36.5,16.34161 36.5,36.5 z m -28.93738,22.42365 c 0,20.1584 -16.34161,36.49997 -36.5,36.49997 -20.15839,0 -36.5,-16.34157 -36.5,-36.49997 0,-20.15839 16.34161,-36.5 36.5,-36.5 20.15839,0 36.5,16.34161 36.5,36.5 z" />
  </g>
</svg>
