<?xml version="1.0" encoding="UTF-8" standalone="no"?>
<!-- Created with Inkscape (http://www.inkscape.org/) -->

<svg
   xmlns:dc="http://purl.org/dc/elements/1.1/"
   xmlns:cc="http://creativecommons.org/ns#"
   xmlns:rdf="http://www.w3.org/1999/02/22-rdf-syntax-ns#"
   xmlns:svg="http://www.w3.org/2000/svg"
   xmlns="http://www.w3.org/2000/svg"
   xmlns:sodipodi="http://sodipodi.sourceforge.net/DTD/sodipodi-0.dtd"
   xmlns:inkscape="http://www.inkscape.org/namespaces/inkscape"
   width="744.09448819"
   height="1052.3622047"
   id="svg2"
   version="1.1"
   inkscape:version="0.47 r22583"
   sodipodi:docname="New document 1">
  <defs
     id="defs4">
    <inkscape:perspective
       sodipodi:type="inkscape:persp3d"
       inkscape:vp_x="0 : 526.18109 : 1"
       inkscape:vp_y="0 : 1000 : 0"
       inkscape:vp_z="744.09448 : 526.18109 : 1"
       inkscape:persp3d-origin="372.04724 : 350.78739 : 1"
       id="perspective10" />
  </defs>
  <sodipodi:namedview
     id="base"
     pagecolor="#ffffff"
     bordercolor="#666666"
     borderopacity="1.0"
     inkscape:pageopacity="0.0"
     inkscape:pageshadow="2"
     inkscape:zoom="1"
     inkscape:cx="120.78658"
     inkscape:cy="257.00529"
     inkscape:document-units="px"
     inkscape:current-layer="layer1"
     showgrid="false"
     inkscape:window-width="1280"
     inkscape:window-height="962"
     inkscape:window-x="-8"
     inkscape:window-y="-8"
     inkscape:window-maximized="1" />
  <metadata
     id="metadata7">
    <rdf:RDF>
      <cc:Work
         rdf:about="">
        <dc:format>image/svg+xml</dc:format>
        <dc:type
           rdf:resource="http://purl.org/dc/dcmitype/StillImage" />
        <dc:title></dc:title>
      </cc:Work>
    </rdf:RDF>
  </metadata>
  <g
     inkscape:label="Layer 1"
     inkscape:groupmode="layer"
     id="layer1">
    <path
       style="fill:none;stroke:#e70000;stroke-width:4.68529224;stroke-linecap:butt;stroke-linejoin:miter;stroke-miterlimit:4;stroke-opacity:1;stroke-dasharray:none"
       d="M 66.618421,993.61655 C 38.805346,916.24802 138.28325,930.54862 69.74195,849.93422 l 126.50289,-40.60587 c 95.74991,78.47076 106.28168,134.16863 42.16763,198.34405 L 66.618421,993.61655 z"
       id="path2816"
       sodipodi:nodetypes="ccccc" />
    <path
       sodipodi:type="arc"
       style="fill:#000000;fill-opacity:1;fill-rule:nonzero;stroke:none"
       id="path2818"
       sodipodi:cx="296.5"
       sodipodi:cy="817.86218"
       sodipodi:rx="66.5"
       sodipodi:ry="66.5"
       d="m 363,817.86218 a 66.5,66.5 0 1 1 -133,0 66.5,66.5 0 1 1 133,0 z"
       transform="matrix(0.08219811,0,0,0.08219811,172.26355,742.10163)" />
    <path
       transform="matrix(0.08219811,0,0,0.08219811,267.51496,820.24201)"
       d="m 363,817.86218 a 66.5,66.5 0 1 1 -133,0 66.5,66.5 0 1 1 133,0 z"
       sodipodi:ry="66.5"
       sodipodi:rx="66.5"
       sodipodi:cy="817.86218"
       sodipodi:cx="296.5"
       id="path3592"
       style="fill:#000000;fill-opacity:1;fill-rule:nonzero;stroke:none"
       sodipodi:type="arc" />
    <path
       sodipodi:type="arc"
       style="fill:#000000;fill-opacity:1;fill-rule:nonzero;stroke:none"
       id="path3594"
       sodipodi:cx="296.5"
       sodipodi:cy="817.86218"
       sodipodi:rx="66.5"
       sodipodi:ry="66.5"
       d="m 363,817.86218 a 66.5,66.5 0 1 1 -133,0 66.5,66.5 0 1 1 133,0 z"
       transform="matrix(0.08219811,0,0,0.08219811,277.78157,876.13804)" />
    <path
       transform="matrix(0.08219811,0,0,0.08219811,214.47075,939.44887)"
       d="m 363,817.86218 a 66.5,66.5 0 1 1 -133,0 66.5,66.5 0 1 1 133,0 z"
       sodipodi:ry="66.5"
       sodipodi:rx="66.5"
       sodipodi:cy="817.86218"
       sodipodi:cx="296.5"
       id="path3596"
       style="fill:#000000;fill-opacity:1;fill-rule:nonzero;stroke:none"
       sodipodi:type="arc" />
    <path
       sodipodi:type="arc"
       style="fill:#000000;fill-opacity:1;fill-rule:nonzero;stroke:none"
       id="path3598"
       sodipodi:cx="296.5"
       sodipodi:cy="817.86218"
       sodipodi:rx="66.5"
       sodipodi:ry="66.5"
       d="m 363,817.86218 a 66.5,66.5 0 1 1 -133,0 66.5,66.5 0 1 1 133,0 z"
       transform="matrix(0.08219811,0,0,0.08219811,43.360425,926.90078)" />
    <path
       transform="matrix(0.08219811,0,0,0.08219811,15.412404,849.90113)"
       d="m 363,817.86218 a 66.5,66.5 0 1 1 -133,0 66.5,66.5 0 1 1 133,0 z"
       sodipodi:ry="66.5"
       sodipodi:rx="66.5"
       sodipodi:cy="817.86218"
       sodipodi:cx="296.5"
       id="path3600"
       style="fill:#000000;fill-opacity:1;fill-rule:nonzero;stroke:none"
       sodipodi:type="arc" />
    <path
       sodipodi:type="arc"
       style="fill:#000000;fill-opacity:1;fill-rule:nonzero;stroke:none"
       id="path3602"
       sodipodi:cx="296.5"
       sodipodi:cy="817.86218"
       sodipodi:rx="66.5"
       sodipodi:ry="66.5"
       d="m 363,817.86218 a 66.5,66.5 0 1 1 -133,0 66.5,66.5 0 1 1 133,0 z"
       transform="matrix(0.08219811,0,0,0.08219811,114.08602,863.58997)" />
    <path
       transform="matrix(0.08219811,0,0,0.08219811,45.641895,783.1681)"
       d="m 363,817.86218 a 66.5,66.5 0 1 1 -133,0 66.5,66.5 0 1 1 133,0 z"
       sodipodi:ry="66.5"
       sodipodi:rx="66.5"
       sodipodi:cy="817.86218"
       sodipodi:cx="296.5"
       id="path3606"
       style="fill:#000000;fill-opacity:1;fill-rule:nonzero;stroke:none"
       sodipodi:type="arc" />
    <path
       sodipodi:nodetypes="ccccccccc"
       id="path3608"
       d="m 66.618421,993.61655 -27.284428,-76.07478 99.467647,13.53995 -69.05969,-81.1475 126.50289,-40.60587 95.23236,78.37523 9.6073,55.74998 -62.67203,64.21884 -171.794049,-14.05585 z"
       style="fill:none;stroke:#000000;stroke-width:2;stroke-linecap:butt;stroke-linejoin:miter;stroke-miterlimit:4;stroke-opacity:1;stroke-dasharray:4,2;stroke-dashoffset:0" />
    <text
       xml:space="preserve"
       style="font-size:28.34809113000000000px;font-style:normal;font-weight:normal;fill:#e70000;fill-opacity:1;stroke:none;font-family:Bitstream Vera Sans"
       x="64.9757"
       y="908.02997"
       id="text3610"><tspan
         sodipodi:role="line"
         id="tspan3612"
         x="64.9757"
         y="908.02997">a</tspan></text>
    <text
       id="text3614"
       y="855.02997"
       x="143.1452"
       style="font-size:28.34809113000000000px;font-style:normal;font-weight:normal;fill:#e70000;fill-opacity:1;stroke:none;font-family:Bitstream Vera Sans"
       xml:space="preserve"><tspan
         y="855.02997"
         x="143.1452"
         id="tspan3616"
         sodipodi:role="line">b</tspan></text>
    <text
       xml:space="preserve"
       style="font-size:28.34809113000000000px;font-style:normal;font-weight:normal;fill:#e70000;fill-opacity:1;stroke:none;font-family:Bitstream Vera Sans"
       x="255.1452"
       y="929.02997"
       id="text3618"><tspan
         sodipodi:role="line"
         id="tspan3620"
         x="255.1452"
         y="929.02997">c</tspan></text>
    <text
       id="text3622"
       y="989.02997"
       x="147.1452"
       style="font-size:28.34809113000000000px;font-style:normal;font-weight:normal;fill:#e70000;fill-opacity:1;stroke:none;font-family:Bitstream Vera Sans"
       xml:space="preserve"><tspan
         y="989.02997"
         x="147.1452"
         id="tspan3624"
         sodipodi:role="line">d</tspan></text>
    <text
       id="text3626"
       y="1021.1262"
       x="39.446678"
       style="font-size:20.1341877px;font-style:normal;font-weight:normal;fill:#000000;fill-opacity:1;stroke:none;font-family:Bitstream Vera Sans"
       xml:space="preserve"><tspan
         y="1021.1262"
         x="39.446678"
         id="tspan3628"
         sodipodi:role="line">A1,D2</tspan></text>
    <text
       xml:space="preserve"
       style="font-size:20.1341877px;font-style:normal;font-weight:normal;fill:#000000;fill-opacity:1;stroke:none;font-family:Bitstream Vera Sans"
       x="10.446679"
       y="906.12622"
       id="text3642"><tspan
         sodipodi:role="line"
         id="tspan3644"
         x="10.446679"
         y="906.12622">A2</tspan></text>
    <text
       id="text3646"
       y="942.10657"
       x="149.44669"
       style="font-size:20.1341877px;font-style:normal;font-weight:normal;fill:#000000;fill-opacity:1;stroke:none;font-family:Bitstream Vera Sans"
       xml:space="preserve"><tspan
         y="942.10657"
         x="149.44669"
         sodipodi:role="line"
         id="tspan3650">A3</tspan></text>
    <text
       xml:space="preserve"
       style="font-size:20.1341877px;font-style:normal;font-weight:normal;fill:#000000;fill-opacity:1;stroke:none;font-family:Bitstream Vera Sans"
       x="34.446686"
       y="831.10657"
       id="text3654"><tspan
         id="tspan3656"
         sodipodi:role="line"
         x="34.446686"
         y="831.10657">A4,B1</tspan></text>
    <text
       id="text3658"
       y="794.10657"
       x="169.44669"
       style="font-size:20.1341877px;font-style:normal;font-weight:normal;fill:#000000;fill-opacity:1;stroke:none;font-family:Bitstream Vera Sans"
       xml:space="preserve"><tspan
         y="794.10657"
         x="169.44669"
         sodipodi:role="line"
         id="tspan3660">B2,C1</tspan></text>
    <text
       xml:space="preserve"
       style="font-size:20.1341877px;font-style:normal;font-weight:normal;fill:#000000;fill-opacity:1;stroke:none;font-family:Bitstream Vera Sans"
       x="292.44669"
       y="875.10657"
       id="text3662"><tspan
         id="tspan3664"
         sodipodi:role="line"
         x="292.44669"
         y="875.10657">C2</tspan></text>
    <text
       id="text3666"
       y="957.10657"
       x="312.44669"
       style="font-size:20.1341877px;font-style:normal;font-weight:normal;fill:#000000;fill-opacity:1;stroke:none;font-family:Bitstream Vera Sans"
       xml:space="preserve"><tspan
         y="957.10657"
         x="312.44669"
         sodipodi:role="line"
         id="tspan3668">C3</tspan></text>
    <text
       xml:space="preserve"
       style="font-size:20.1341877px;font-style:normal;font-weight:normal;fill:#000000;fill-opacity:1;stroke:none;font-family:Bitstream Vera Sans"
       x="217.44669"
       y="1034.1067"
       id="text3670"><tspan
         id="tspan3672"
         sodipodi:role="line"
         x="217.44669"
         y="1034.1067">D1,C4</tspan></text>
  </g>
</svg>
