<?xml version="1.0" encoding="UTF-8" standalone="no"?>
<!-- Created with Inkscape (http://www.inkscape.org/) -->

<svg
   xmlns:dc="http://purl.org/dc/elements/1.1/"
   xmlns:cc="http://creativecommons.org/ns#"
   xmlns:rdf="http://www.w3.org/1999/02/22-rdf-syntax-ns#"
   xmlns:svg="http://www.w3.org/2000/svg"
   xmlns="http://www.w3.org/2000/svg"
   xmlns:sodipodi="http://sodipodi.sourceforge.net/DTD/sodipodi-0.dtd"
   xmlns:inkscape="http://www.inkscape.org/namespaces/inkscape"
   width="744.09448819"
   height="1052.3622047"
   id="svg3012"
   version="1.1"
   inkscape:version="0.48.0 r9654"
   sodipodi:docname="New document 1">
  <defs
     id="defs3014" />
  <sodipodi:namedview
     id="base"
     pagecolor="#ffffff"
     bordercolor="#666666"
     borderopacity="1.0"
     inkscape:pageopacity="0.0"
     inkscape:pageshadow="2"
     inkscape:zoom="1.4"
     inkscape:cx="108.29039"
     inkscape:cy="76.554586"
     inkscape:document-units="px"
     inkscape:current-layer="layer1"
     showgrid="false"
     inkscape:window-width="469"
     inkscape:window-height="455"
     inkscape:window-x="654"
     inkscape:window-y="302"
     inkscape:window-maximized="0" />
  <metadata
     id="metadata3017">
    <rdf:RDF>
      <cc:Work
         rdf:about="">
        <dc:format>image/svg+xml</dc:format>
        <dc:type
           rdf:resource="http://purl.org/dc/dcmitype/StillImage" />
        <dc:title></dc:title>
      </cc:Work>
    </rdf:RDF>
  </metadata>
  <g
     inkscape:label="Layer 1"
     inkscape:groupmode="layer"
     id="layer1">
    <path
       sodipodi:type="arc"
       style="fill:none;stroke:#dc0000;stroke-width:1.6592766;stroke-miterlimit:4;stroke-opacity:1;stroke-dasharray:none"
       id="path4634"
       sodipodi:cx="200.5"
       sodipodi:cy="948.86218"
       sodipodi:rx="36.5"
       sodipodi:ry="36.5"
       d="m 237,948.86218 a 36.5,36.5 0 1 1 -73,0 36.5,36.5 0 1 1 73,0 z"
       transform="matrix(0.90401444,0,0,0.90400244,-121.32383,142.22925)" />
    <path
       transform="matrix(0.90401444,0,0,0.90400244,-95.164018,121.95822)"
       d="m 237,948.86218 a 36.5,36.5 0 1 1 -73,0 36.5,36.5 0 1 1 73,0 z"
       sodipodi:ry="36.5"
       sodipodi:rx="36.5"
       sodipodi:cy="948.86218"
       sodipodi:cx="200.5"
       id="path4636"
       style="fill:none;stroke:#dc0000;stroke-width:1.6592766;stroke-miterlimit:4;stroke-opacity:1;stroke-dasharray:none"
       sodipodi:type="arc" />
    <path
       sodipodi:type="star"
       style="fill:#dc0000;fill-opacity:1;stroke:none"
       id="path4638"
       sodipodi:sides="3"
       sodipodi:cx="207.25"
       sodipodi:cy="817.61218"
       sodipodi:r1="16.841169"
       sodipodi:r2="8.4205847"
       sodipodi:arg1="0"
       sodipodi:arg2="1.0471976"
       inkscape:flatsided="false"
       inkscape:rounded="0"
       inkscape:randomized="0"
       d="m 224.09117,817.61218 -12.63088,7.29244 -12.63087,7.29244 0,-14.58488 0,-14.58488 12.63087,7.29244 z"
       transform="matrix(0,-0.32704594,0.32704594,0,-214.06278,1047.4132)" />
    <path
       transform="matrix(0,-0.32704594,0.32704594,0,-174.65288,1069.0406)"
       d="m 224.09117,817.61218 -12.63088,7.29244 -12.63087,7.29244 0,-14.58488 0,-14.58488 12.63087,7.29244 z"
       inkscape:randomized="0"
       inkscape:rounded="0"
       inkscape:flatsided="false"
       sodipodi:arg2="1.0471976"
       sodipodi:arg1="0"
       sodipodi:r2="8.4205847"
       sodipodi:r1="16.841169"
       sodipodi:cy="817.61218"
       sodipodi:cx="207.25"
       sodipodi:sides="3"
       id="path4640"
       style="fill:#dc0000;fill-opacity:1;stroke:none"
       sodipodi:type="star" />
    <text
       id="text4642"
       y="1002.0445"
       x="68.354813"
       style="font-size:19.13043404px;font-style:normal;font-weight:normal;fill:#000000;fill-opacity:1;stroke:none;font-family:Bitstream Vera Sans"
       xml:space="preserve"><tspan
         y="1002.0445"
         x="68.354813"
         id="tspan4644"
         sodipodi:role="line">0</tspan></text>
    <path
       transform="matrix(0.13333333,0,0,0.13333333,61.310151,859.31248)"
       d="m 108.18734,910.2337 a 15.909903,15.909903 0 1 1 -31.819807,0 15.909903,15.909903 0 1 1 31.819807,0 z"
       sodipodi:ry="15.909903"
       sodipodi:rx="15.909903"
       sodipodi:cy="910.2337"
       sodipodi:cx="92.277435"
       id="path4646"
       style="fill:#000000;fill-opacity:1;stroke:none"
       sodipodi:type="arc" />
    <text
       xml:space="preserve"
       style="font-size:19.13043404px;font-style:normal;font-weight:normal;fill:#000000;fill-opacity:1;stroke:none;font-family:Bitstream Vera Sans"
       x="93.457092"
       y="984.01331"
       id="text4648"><tspan
         sodipodi:role="line"
         id="tspan4650"
         x="93.457092"
         y="984.01331">1</tspan></text>
    <path
       sodipodi:type="arc"
       style="fill:#000000;fill-opacity:1;stroke:none"
       id="path4652"
       sodipodi:cx="92.277435"
       sodipodi:cy="910.2337"
       sodipodi:rx="15.909903"
       sodipodi:ry="15.909903"
       d="m 108.18734,910.2337 a 15.909903,15.909903 0 1 1 -31.819807,0 15.909903,15.909903 0 1 1 31.819807,0 z"
       transform="matrix(0.13333333,0,0,0.13333333,87.455321,841.28126)" />
    <text
       id="text4654"
       y="1019.3686"
       x="35.474346"
       style="font-size:19.13043404px;font-style:normal;font-weight:normal;fill:#000000;fill-opacity:1;stroke:none;font-family:Bitstream Vera Sans"
       xml:space="preserve"><tspan
         y="1019.3686"
         x="35.474346"
         id="tspan4656"
         sodipodi:role="line">-1</tspan></text>
    <path
       transform="matrix(0.13333333,0,0,0.13333333,35.525881,876.63659)"
       d="m 108.18734,910.2337 a 15.909903,15.909903 0 1 1 -31.819807,0 15.909903,15.909903 0 1 1 31.819807,0 z"
       sodipodi:ry="15.909903"
       sodipodi:rx="15.909903"
       sodipodi:cy="910.2337"
       sodipodi:cx="92.277435"
       id="path4658"
       style="fill:#000000;fill-opacity:1;stroke:none"
       sodipodi:type="arc" />
  </g>
</svg>
