<?xml version="1.0" encoding="UTF-8" standalone="no"?>
<!-- Created with Inkscape (http://www.inkscape.org/) -->

<svg
   xmlns:dc="http://purl.org/dc/elements/1.1/"
   xmlns:cc="http://creativecommons.org/ns#"
   xmlns:rdf="http://www.w3.org/1999/02/22-rdf-syntax-ns#"
   xmlns:svg="http://www.w3.org/2000/svg"
   xmlns="http://www.w3.org/2000/svg"
   xmlns:sodipodi="http://sodipodi.sourceforge.net/DTD/sodipodi-0.dtd"
   xmlns:inkscape="http://www.inkscape.org/namespaces/inkscape"
   width="744.09448819"
   height="1052.3622047"
   id="svg4764"
   version="1.1"
   inkscape:version="0.47 r22583"
   sodipodi:docname="zoom.svg">
  <defs
     id="defs4766">
    <inkscape:perspective
       sodipodi:type="inkscape:persp3d"
       inkscape:vp_x="0 : 526.18109 : 1"
       inkscape:vp_y="0 : 1000 : 0"
       inkscape:vp_z="744.09448 : 526.18109 : 1"
       inkscape:persp3d-origin="372.04724 : 350.78739 : 1"
       id="perspective4772" />
    <inkscape:perspective
       id="perspective4782"
       inkscape:persp3d-origin="0.5 : 0.33333333 : 1"
       inkscape:vp_z="1 : 0.5 : 1"
       inkscape:vp_y="0 : 1000 : 0"
       inkscape:vp_x="0 : 0.5 : 1"
       sodipodi:type="inkscape:persp3d" />
  </defs>
  <sodipodi:namedview
     id="base"
     pagecolor="#ffffff"
     bordercolor="#666666"
     borderopacity="1.0"
     inkscape:pageopacity="0.0"
     inkscape:pageshadow="2"
     inkscape:zoom="1"
     inkscape:cx="242.8291"
     inkscape:cy="850.04729"
     inkscape:document-units="px"
     inkscape:current-layer="layer1"
     showgrid="false"
     inkscape:window-width="1280"
     inkscape:window-height="962"
     inkscape:window-x="-8"
     inkscape:window-y="-8"
     inkscape:window-maximized="1" />
  <metadata
     id="metadata4769">
    <rdf:RDF>
      <cc:Work
         rdf:about="">
        <dc:format>image/svg+xml</dc:format>
        <dc:type
           rdf:resource="http://purl.org/dc/dcmitype/StillImage" />
        <dc:title></dc:title>
      </cc:Work>
    </rdf:RDF>
  </metadata>
  <g
     inkscape:label="Layer 1"
     inkscape:groupmode="layer"
     id="layer1">
    <g
       id="g4760"
       style="fill:#000000;fill-opacity:1;stroke:#000000"
       transform="matrix(0.28009249,0,0,0.28009249,121.82025,57.347085)">
      <path
         id="path4762"
         d="m -129.83,103.065 c 0.503,6.048 1.491,12.617 3.23,15.736 0,0 -3.6,12.4 5.2,25.6 0,0 -0.4,7.2 1.2,10.4 0,0 4,8.4 8.8,9.2 3.884,0.647 12.607,3.716 22.468,5.12 0,0 17.132,14.08 13.932,26.88 0,0 -0.4,16.4 -4,18 0,0 11.6,-11.2 2,5.6 l -4.4,18.8 c 0,0 25.6,-21.6 10,-3.2 l -10,26 c 0,0 19.6,-18.4 12.4,-10 l -3.2,8.8 c 0,0 43.2,-27.2 12.4,2.4 0,0 8,-3.6 12.4,-0.8 0,0 6.8,-1.2 6,0.4 0,0 -20.8,10.4 -24.4,28.8 0,0 8.4,-10 5.2,0.8 l 0.4,11.6 c 0,0 4,-21.6 3.6,16 0,0 19.2,-18 7.6,2.8 l 0,16.8 c 0,0 15.2,-16.4 8.8,-3.6 0,0 10,-8.8 6,6.4 0,0 -0.8,10.4 3.6,-0.8 0,0 16,-30.6 10,-4.4 0,0 -0.8,19.2 4,4.4 0,0 0.4,10.4 9.6,17.6 0,0 -1.2,-50.8 11.6,-14.8 l 4,16.4 c 0,0 2.8,-9.2 2.4,-14.4 0,0 14.8,-16.4 8,8 0,0 15.2,-22.8 12,-9.6 0,0 -7.6,16 -6,20.8 0,0 16.8,-34.8 18,-36.4 0,0 -2,42.401 8.8,6.4 0,0 5.6,12 2.8,16.4 0,0 8,-8 7.2,-11.2 0,0 4.6,-8.2 7.4,5.4 0,0 1.8,9.4 3.4,6.2 0,0 4,24.001 5.2,1.2 0,0 1.6,-13.6 -5.6,-25.2 0,0 0.8,-3.2 -2,-7.2 0,0 13.6,21.6 6.4,-7.2 0,0 11.201,8 12.401,8 0,0 -13.601,-23.2 -4.801,-18.4 0,0 -5.2,-10.4 12.801,1.6 0,0 -16.001,-16 1.6,-6.4 0,0 8,6.4 0.4,-3.6 0,0 -14.401,-16 7.6,2 0,0 11.6,16.4 12.4,19.2 0,0 -10,-29.2 -14.4,-32 0,0 8.4,-36.4 49.6,-20.8 0,0 6.8,17.2 11.2,-1.2 0,0 12.8,-6.4 24,21.2 0,0 4,-13.6 3.2,-16.4 0,0 6.8,1.2 6,0 0,0 13.2,4.4 14.4,3.6 0,0 6.8,6.8 7.2,3.2 0,0 9.2,2.8 7.2,-0.8 0,0 8.8,15.6 9.2,19.2 l 2.4,-14 2,2.8 c 0,0 1.6,-7.6 0.8,-8.8 -0.8,-1.2 20,6.8 24.8,27.6 l 2,8.4 c 0,0 6,-14.8 4.4,-18.8 0,0 5.2,0.8 5.6,5.2 0,0 4,-23.2 -0.8,-29.2 0,0 4.4,-0.8 5.6,2.8 l 0,-7.2 c 0,0 7.2,0.8 7.2,-1.6 0,0 4.4,-4 6.4,0.8 0,0 -12.4,-35.2 6,-16 0,0 7.2,10.8 3.6,-8 -3.6,-18.8 -7.6,-20.4 -2.8,-20.8 0,0 0.8,-3.6 -1.2,-5.2 -2,-1.6 1.2,0 1.2,0 0,0 4.8,4 -0.4,-18 0,0 6.4,1.6 -5.6,-27.6 0,0 2.8,-2.4 -1.2,-10.8 0,0 8,4.4 10.8,2.8 0,0 -0.4,-1.6 -3.6,-5.6 0,0 -21.6,-54.801 -1.2,-32.8 0,0 11.85,13.55 5.45,-9.25 0,0 -9.111,-24.01 -8.334,-28.306 l -429.547,23.02 z"
         style="fill:#000000;fill-opacity:1" />
    </g>
    <rect
       style="fill:none;stroke:#000000;stroke-width:0.77140701;stroke-miterlimit:4;stroke-opacity:1;stroke-dasharray:none"
       id="rect4807"
       width="35.851837"
       height="27.449064"
       x="177.5551"
       y="119.74612" />
    <path
       style="fill:none;stroke:#000000;stroke-width:2.04268575;stroke-miterlimit:4;stroke-dasharray:4.08537164, 2.04268582;stroke-dashoffset:0"
       d="m 360.25781,171.6978 c -4.0624,-13.15923 -5.72348,-14.85308 0.95541,-15.40965 0,0 1.63431,-7.35439 -2.45147,-10.62301 -4.08577,-3.26862 2.45147,0 2.45147,0 0,0 9.80585,8.17154 -0.81716,-36.77194 0,0 7.22587,1.80646 0.86174,-21.77552"
       id="path5602" />
    <path
       style="fill:none;stroke:#000000;stroke-width:2.04288602;stroke-miterlimit:4;stroke-dasharray:4.08577185, 2.04288592;stroke-dashoffset:0"
       d="m 59.666033,262.27659 c 4.799355,7.54654 12.874969,14.4453 18.811787,-10.38138 0,0 26.14894,-13.07447 49.02926,43.30918 0,0 8.17154,-27.78325 6.53723,-33.50333 0,0 13.89162,2.45146 12.25731,0 0,0 0.0224,0.008 0.0658,0.0218"
       id="path5583" />
    <rect
       y="172.58861"
       x="147.0909"
       height="200.20282"
       width="261.48938"
       id="rect5585"
       style="fill:none;stroke:#000000;stroke-width:2.04288578;stroke-opacity:1" />
    <path
       style="fill:none;stroke:#000000;stroke-width:0.77140701px;stroke-linecap:butt;stroke-linejoin:miter;stroke-opacity:1"
       d="m 177.56057,120.76183 -30.97414,51.73501"
       id="path5604"
       sodipodi:nodetypes="cc" />
    <path
       style="fill:none;stroke:#000000;stroke-width:0.77140701px;stroke-linecap:butt;stroke-linejoin:miter;stroke-opacity:1"
       d="m 213.97845,119.3073 194.38769,52.82723"
       id="path5606"
       sodipodi:nodetypes="cc" />
    <path
       id="rect5610"
       style="fill:#000000;stroke:#000000;stroke-width:2.04288578000000020;stroke-opacity:1;fill-opacity:1"
       d="m 146.72915,261.7493 c 1.46606,0.48671 26.60912,8.89343 28.99003,7.30615 0,0 13.89163,13.89162 14.70878,6.53723 0,0 18.79455,5.72009 14.70878,-1.63431 0,0 17.97739,31.86903 18.79455,39.22341 l 4.90292,-28.6004 4.08578,5.72008 c 0,0 3.26861,-15.52593 1.63431,-17.9774 -1.63431,-2.45146 40.85771,13.89163 50.66357,56.38365 l 4.08577,17.16025 c 0,0 12.25731,-30.23472 8.9887,-38.40626 0,0 10.623,1.63431 11.44016,10.62301 0,0 8.17154,-47.39495 -1.63432,-59.65227 0,0 8.9887,-1.63431 11.44016,5.72008 l 0,-14.70878 c 0,0 14.70878,1.63431 14.70878,-3.26861 0,0 8.9887,-8.17155 13.07447,1.6343 0,0 -25.33178,-71.90957 12.25732,-32.68617 0,0 14.70878,22.06317 7.35439,-16.34308 -2.34522,-12.24726 -4.77354,-20.92141 -6.73266,-26.63697 l -213.10974,0.4454 -0.36175,89.16069 z"
       sodipodi:nodetypes="cccccccsccccccccccsccc" />
  </g>
</svg>
